<?xml version="1.0" encoding="utf-8"?>
<!-- Generator: Adobe Illustrator 16.0.0, SVG Export Plug-In . SVG Version: 6.00 Build 0)  -->
<!DOCTYPE svg PUBLIC "-//W3C//DTD SVG 1.1//EN" "http://www.w3.org/Graphics/SVG/1.1/DTD/svg11.dtd">
<svg version="1.1" id="Layer_1" xmlns="http://www.w3.org/2000/svg" xmlns:xlink="http://www.w3.org/1999/xlink" x="0px" y="0px"
	 width="295px" height="195px" viewBox="0 0 295 195" enable-background="new 0 0 295 195" xml:space="preserve">
<text transform="matrix(1 0 0 1 -316.2808 89.7949)"><tspan x="0" y="0" fill="#FFFFFF" stroke="#FFFFFF" stroke-miterlimit="10" font-family="'AvantGardeLT-Medium'" font-size="31.9933">I’M </tspan><tspan x="55.827" y="0" fill="#FFFFFF" stroke="#FFFFFF" stroke-width="2" stroke-miterlimit="10" font-family="'AvantGardeLT-Medium'" font-size="31.9933">RAQUEL</tspan><tspan x="174.904" y="0" fill="#FFFFFF" stroke="#FFFFFF" stroke-miterlimit="10" font-family="'AvantGardeLT-Medium'" font-size="31.9933">, YOUR</tspan><tspan x="0" y="84" fill="#FFFFFF" stroke="#FFFFFF" stroke-width="2" stroke-miterlimit="10" font-family="'AvantGardeLT-Medium'" font-size="69.3189">PARTNER</tspan><tspan x="0" y="150" fill="#FFFFFF" stroke="#FFFFFF" stroke-miterlimit="10" font-family="'AvantGardeLT-Medium'" font-size="39.9917">IN REAL ESTATE.</tspan></text>
<g>
	<rect x="12.271" y="10.356" fill="#FFFFFF" width="4.456" height="24.675"/>
	<path fill="#FFFFFF" d="M23.552,18.423c0.498-0.415,0.879-0.876,1.133-1.372c0.251-0.491,0.404-0.992,0.453-1.491
		c0.044-0.456,0.066-0.84,0.066-1.152v-4.051h-4.328v4.903h1.178c-0.014,0.226-0.048,0.369-0.079,0.455
		c-0.051,0.148-0.114,0.262-0.184,0.339c-0.073,0.08-0.147,0.136-0.226,0.172c-0.121,0.056-0.236,0.102-0.348,0.139l-0.343,0.113
		v2.997l0.605-0.131C22.347,19.157,23.044,18.847,23.552,18.423z"/>
	<polygon fill="#FFFFFF" points="33.811,16.973 41.034,35.032 43.791,35.032 51.015,16.901 51.015,35.032 55.47,35.032 
		55.47,10.356 49.19,10.356 42.397,27.628 35.635,10.356 29.355,10.356 29.355,35.032 33.811,35.032 	"/>
	<path fill="#FFFFFF" d="M72.733,26.599l6.355,8.933h5.081h1.753h4.035l2.624-6.975h7.125l2.624,6.975h5.821l-9.75-25.675h-4.483
		l-9.16,24.123l-5.648-7.531c0.04-0.009,0.081-0.018,0.122-0.027c0.876-0.197,1.751-0.592,2.601-1.175
		c0.863-0.591,1.624-1.434,2.262-2.504c0.656-1.102,0.988-2.549,0.988-4.303c0-1.111-0.197-2.234-0.584-3.339
		c-0.402-1.145-1.04-2.146-1.897-2.979c-0.713-0.688-1.624-1.245-2.708-1.656c-1.084-0.409-2.487-0.608-4.288-0.608h-8.327v25.675
		h5.455V26.599z M94.496,23.39l1.676-4.992l1.659,4.992H94.496z M72.733,15.024h2.647c0.842,0,1.541,0.114,2.077,0.338
		c0.534,0.224,0.966,0.503,1.286,0.831c0.315,0.324,0.534,0.668,0.667,1.053c0.144,0.417,0.217,0.818,0.217,1.193
		c0,0.61-0.095,1.113-0.283,1.496c-0.193,0.394-0.441,0.721-0.737,0.971c-0.317,0.267-0.679,0.479-1.074,0.631
		c-0.441,0.169-0.875,0.292-1.289,0.365c-0.436,0.078-0.846,0.126-1.22,0.146c-0.394,0.02-0.702,0.031-0.924,0.031h-1.368V15.024z"
		/>
	<path fill="#FFFFFF" d="M109.875,32.081c1.185,1.208,2.594,2.169,4.188,2.857c2.745,1.185,5.956,1.349,8.889,0.524
		c1.019-0.286,2.012-0.672,2.962-1.151c0.197,0.12,0.402,0.239,0.618,0.358c0.429,0.239,0.908,0.454,1.424,0.642
		c0.514,0.187,1.096,0.346,1.729,0.473c0.648,0.129,1.397,0.195,2.228,0.195h1V30.78h-1c-0.398,0-0.737-0.009-1.018-0.029
		c-0.235-0.017-0.447-0.049-0.634-0.099c-0.095-0.024-0.189-0.053-0.285-0.086c0.076-0.114,0.153-0.232,0.233-0.355
		c0.358-0.556,0.701-1.206,1.02-1.934c0.32-0.732,0.597-1.567,0.823-2.481c0.232-0.939,0.349-1.983,0.349-3.103
		c0-1.788-0.338-3.505-1.005-5.105c-0.666-1.592-1.596-3.01-2.765-4.214c-1.172-1.206-2.579-2.178-4.184-2.889
		c-1.616-0.715-3.377-1.077-5.236-1.077c-1.854,0-3.605,0.344-5.206,1.023c-1.596,0.677-3.006,1.627-4.191,2.824
		c-1.185,1.196-2.123,2.611-2.788,4.206c-0.667,1.599-1.005,3.337-1.005,5.168c0,1.856,0.35,3.615,1.041,5.225
		C107.749,29.457,108.695,30.878,109.875,32.081z M111.477,22.854c0-1.145,0.207-2.234,0.615-3.239
		c0.41-1.009,0.972-1.895,1.67-2.631c0.696-0.734,1.534-1.327,2.488-1.762c1.896-0.863,4.214-0.854,6.036,0.009
		c0.936,0.444,1.76,1.043,2.45,1.78c0.688,0.735,1.235,1.604,1.625,2.582c0.388,0.976,0.585,2.019,0.585,3.102
		c0,0.75-0.071,1.424-0.212,2.004c-0.142,0.588-0.322,1.106-0.534,1.539c-0.223,0.455-0.448,0.845-0.671,1.16
		c-0.013,0.018-0.025,0.036-0.038,0.054c-1.542-1.174-3.087-2.11-4.607-2.79c-1.838-0.822-3.714-1.239-5.575-1.239
		c-0.521,0-1.204,0.038-2.088,0.116c-0.563,0.05-1.127,0.155-1.688,0.312C111.503,23.646,111.477,23.33,111.477,22.854z
		 M114.08,28.63c0.572-0.066,1.503-0.06,2.406,0.076c0.491,0.074,1.029,0.223,1.599,0.44c0.596,0.229,1.249,0.538,1.94,0.918
		c0.303,0.167,0.62,0.357,0.95,0.57c-0.319,0.094-0.836,0.177-1.667,0.177c-1.239,0-2.423-0.29-3.521-0.863
		c-0.672-0.351-1.277-0.788-1.81-1.307C114.011,28.639,114.045,28.634,114.08,28.63z"/>
	<path fill="#FFFFFF" d="M136.681,33.733c0.824,0.684,1.762,1.233,2.786,1.633c1.04,0.407,2.179,0.613,3.388,0.613
		c1.208,0,2.348-0.206,3.387-0.612c1.025-0.401,1.963-0.95,2.844-1.686c0.836-0.812,1.502-1.786,1.982-2.898
		c0.479-1.114,0.721-2.425,0.721-3.898V9.856h-5.456V26.79c0,0.916-0.138,1.641-0.412,2.154c-0.278,0.524-0.6,0.922-0.955,1.183
		c-0.37,0.271-0.743,0.451-1.109,0.537c-0.528,0.124-0.836,0.15-1.003,0.15c-0.167,0-0.481-0.026-1.026-0.151
		c-0.374-0.085-0.75-0.265-1.118-0.535c-0.353-0.259-0.667-0.653-0.935-1.173c-0.266-0.514-0.4-1.242-0.4-2.164V9.856h-5.456v17.029
		c0,1.476,0.243,2.788,0.721,3.898C135.118,31.893,135.785,32.868,136.681,33.733z"/>
	<polygon fill="#FFFFFF" points="169,30.364 159.689,30.364 159.689,25.166 169,25.166 169,19.999 159.689,19.999 159.689,15.024 
		169,15.024 169,9.856 154.234,9.856 154.234,35.532 169,35.532 	"/>
	<polygon fill="#FFFFFF" points="184.996,30.364 176.775,30.364 176.775,9.856 171.318,9.856 171.318,35.532 184.996,35.532 	"/>
	<path fill="#FFFFFF" d="M188.955,38.195c0.498-0.416,0.879-0.877,1.133-1.372c0.252-0.49,0.404-0.992,0.453-1.491
		c0.045-0.457,0.066-0.841,0.066-1.153v-4.051h-4.328v4.903h1.178c-0.014,0.227-0.047,0.369-0.076,0.453
		c-0.053,0.146-0.117,0.265-0.184,0.339c-0.074,0.081-0.148,0.137-0.227,0.173c-0.121,0.056-0.236,0.103-0.35,0.14l-0.342,0.114
		v2.947l0.594-0.112C187.744,38.921,188.445,38.621,188.955,38.195z"/>
	<polygon fill="#FFFFFF" points="204.836,35.032 209.291,35.032 209.291,26.104 216.881,10.356 211.928,10.356 207.062,20.78 
		202.166,10.356 197.178,10.356 204.836,26.105 	"/>
	<path fill="#FFFFFF" d="M216.936,27.542c0.641,1.536,1.543,2.907,2.68,4.075c1.135,1.169,2.5,2.115,4.057,2.812
		c1.561,0.698,3.283,1.051,5.115,1.051c1.812,0,3.521-0.354,5.084-1.051c1.553-0.694,2.922-1.633,4.07-2.792
		c1.146-1.159,2.055-2.52,2.695-4.044c0.643-1.525,0.967-3.151,0.967-4.833c0-1.744-0.324-3.417-0.965-4.974
		c-0.643-1.558-1.549-2.936-2.697-4.097c-1.15-1.16-2.521-2.089-4.076-2.762c-1.561-0.675-3.27-1.017-5.078-1.017
		c-1.875,0-3.617,0.354-5.18,1.051c-1.557,0.696-2.918,1.648-4.045,2.831c-1.127,1.184-2.016,2.56-2.645,4.091
		c-0.629,1.538-0.949,3.157-0.949,4.812C215.969,24.374,216.295,26.004,216.936,27.542z M228.787,14.076
		c1.385,0,2.611,0.267,3.645,0.793c1.043,0.532,1.92,1.226,2.607,2.063c0.693,0.844,1.225,1.793,1.578,2.82
		c0.354,1.031,0.531,2.052,0.531,3.037c0,0.88-0.168,1.833-0.502,2.833c-0.33,0.992-0.844,1.924-1.529,2.771
		c-0.68,0.839-1.555,1.545-2.596,2.097c-1.031,0.545-2.287,0.822-3.734,0.822c-1.426,0-2.678-0.277-3.719-0.823
		c-1.055-0.552-1.934-1.257-2.611-2.095c-0.682-0.843-1.197-1.786-1.529-2.8c-0.334-1.023-0.504-1.999-0.504-2.9
		c0-0.879,0.17-1.838,0.504-2.851c0.332-1.006,0.848-1.949,1.531-2.804c0.68-0.849,1.553-1.565,2.598-2.127
		C226.088,14.357,227.342,14.076,228.787,14.076z"/>
	<path fill="#FFFFFF" d="M246.736,33.349c0.781,0.649,1.674,1.172,2.648,1.553c0.98,0.384,2.061,0.578,3.205,0.578
		s2.225-0.194,3.205-0.578c0.973-0.38,1.863-0.902,2.678-1.579c0.789-0.766,1.42-1.687,1.871-2.736
		c0.451-1.049,0.68-2.294,0.68-3.701V10.356h-4.455V26.79c0,1-0.156,1.804-0.469,2.388c-0.314,0.591-0.686,1.046-1.102,1.352
		c-0.426,0.311-0.859,0.52-1.291,0.62c-0.926,0.217-1.311,0.216-2.254,0c-0.441-0.101-0.879-0.309-1.303-0.619
		c-0.416-0.305-0.781-0.758-1.084-1.346c-0.303-0.587-0.455-1.392-0.455-2.394V10.356h-4.457v16.529c0,1.408,0.23,2.653,0.682,3.701
		C245.285,31.634,245.916,32.555,246.736,33.349z"/>
	<path fill="#FFFFFF" d="M268.926,25.034l7.113,9.998h5.576l-6.691-8.921c0.264-0.043,0.561-0.102,0.891-0.177
		c0.814-0.184,1.631-0.553,2.428-1.099c0.803-0.549,1.514-1.339,2.115-2.348c0.609-1.024,0.918-2.386,0.918-4.047
		c0-1.055-0.188-2.123-0.557-3.173c-0.377-1.072-0.973-2.008-1.771-2.785c-0.664-0.641-1.518-1.162-2.537-1.548
		c-1.016-0.382-2.398-0.576-4.113-0.576h-7.826v24.675h4.455V25.034z M268.926,14.524h3.146c0.91,0,1.674,0.127,2.271,0.377
		c0.596,0.25,1.084,0.568,1.451,0.943c0.361,0.372,0.625,0.789,0.781,1.238c0.162,0.471,0.244,0.927,0.244,1.356
		c0,0.686-0.111,1.263-0.334,1.716c-0.223,0.458-0.514,0.838-0.865,1.134c-0.359,0.303-0.768,0.543-1.215,0.715
		c-0.471,0.18-0.936,0.312-1.381,0.391c-0.457,0.081-0.889,0.133-1.281,0.152c-0.404,0.021-0.723,0.032-0.951,0.032h-1.867V14.524z"
		/>
	<path fill="#FFFFFF" d="M34.778,98.096c2.412-0.804,4.434-1.949,6.011-3.402c1.584-1.46,2.79-3.229,3.582-5.259
		c0.781-2.003,1.177-4.248,1.177-6.671c0-2.375-0.396-4.607-1.176-6.633c-0.792-2.053-1.998-3.835-3.583-5.297
		c-1.579-1.454-3.601-2.599-6.011-3.402c-2.379-0.793-5.179-1.195-8.322-1.195H10.622v53.295h9.486v-20.24h6.348
		C29.597,99.291,32.397,98.889,34.778,98.096z M20.108,75.098h6.348c1.986,0,3.62,0.255,4.857,0.758
		c1.229,0.5,2.21,1.123,2.917,1.85c0.69,0.71,1.168,1.504,1.422,2.359c0.272,0.92,0.41,1.828,0.41,2.697
		c0,0.87-0.138,1.778-0.41,2.697c-0.253,0.856-0.732,1.65-1.421,2.359c-0.708,0.728-1.689,1.351-2.918,1.851
		c-1.237,0.503-2.871,0.758-4.857,0.758h-6.348V75.098z"/>
	<path fill="#FFFFFF" d="M58.623,66.236l-20.238,53.295h10.044l5.684-15.111h17.054l5.685,15.111h10.113L66.727,66.236H58.623z
		 M67.909,95.558H57.445l5.259-15.667L67.909,95.558z"/>
	<path fill="#FFFFFF" d="M119.562,97.452c1.731-1.187,3.264-2.89,4.557-5.062c1.312-2.204,1.978-5.14,1.978-8.726
		c0-2.275-0.404-4.579-1.2-6.848c-0.811-2.309-2.095-4.328-3.819-6.003c-1.433-1.382-3.273-2.504-5.471-3.335
		c-2.184-0.825-5.171-1.243-8.879-1.243H89.853v53.295h9.486v-21.84l15.537,21.84h11.874l-14.48-19.307
		c0.602-0.096,1.287-0.229,2.06-0.404C116.083,99.426,117.844,98.629,119.562,97.452z M99.339,75.098h6.902
		c1.98,0,3.646,0.277,4.95,0.823c1.302,0.546,2.369,1.241,3.172,2.063c0.793,0.814,1.369,1.728,1.712,2.714
		c0.354,1.023,0.534,2.021,0.534,2.966c0,1.502-0.246,2.765-0.729,3.754c-0.49,1-1.127,1.835-1.895,2.482
		c-0.788,0.664-1.683,1.189-2.66,1.564c-1.026,0.393-2.038,0.679-3.006,0.851c-0.996,0.177-1.934,0.289-2.788,0.333
		c-0.879,0.045-1.567,0.067-2.063,0.067h-4.129V75.098z"/>
	<polygon fill="#FFFFFF" points="128.046,75.098 137.89,75.098 137.89,119.531 147.375,119.531 147.375,75.098 157.219,75.098 
		157.219,66.236 128.046,66.236 	"/>
	<polygon fill="#FFFFFF" points="170.459,82.083 194.127,119.07 194.422,119.531 203.732,119.531 203.732,66.236 194.246,66.236 
		194.246,103.059 170.701,66.236 160.973,66.236 160.973,119.531 170.459,119.531 	"/>
	<polygon fill="#FFFFFF" points="241.094,75.098 241.094,66.236 211.436,66.236 211.436,119.531 241.094,119.531 241.094,110.67 
		220.922,110.67 220.922,97.073 241.094,97.073 241.094,88.21 220.922,88.21 220.922,75.098 	"/>
	<path fill="#FFFFFF" d="M247.48,119.531h9.486v-21.84l15.537,21.84h11.875l-14.48-19.307c0.602-0.096,1.285-0.23,2.059-0.404
		c1.754-0.395,3.516-1.191,5.234-2.369c1.73-1.187,3.262-2.89,4.555-5.062c1.312-2.204,1.979-5.14,1.979-8.726
		c0-2.276-0.404-4.58-1.201-6.847c-0.809-2.308-2.092-4.327-3.818-6.003c-1.432-1.382-3.273-2.504-5.471-3.335
		c-2.184-0.825-5.172-1.243-8.879-1.243H247.48V119.531z M256.967,75.098h6.902c1.98,0,3.646,0.277,4.951,0.823
		c1.303,0.547,2.369,1.241,3.172,2.063c0.793,0.814,1.369,1.728,1.711,2.714c0.355,1.023,0.535,2.021,0.535,2.965
		c0,1.502-0.244,2.765-0.73,3.754c-0.488,1-1.127,1.836-1.893,2.482c-0.789,0.664-1.684,1.19-2.662,1.564
		c-1.025,0.393-2.037,0.679-3.004,0.851c-0.998,0.177-1.936,0.289-2.789,0.333c-0.879,0.045-1.566,0.067-2.062,0.067h-4.131V75.098z
		"/>
	<rect x="13.103" y="154.438" fill="#FFFFFF" width="5.319" height="30.594"/>
	<polygon fill="#FFFFFF" points="42.576,175.869 28.873,154.438 23.38,154.438 23.38,185.031 28.699,185.031 28.699,163.24 
		42.643,185.031 47.896,185.031 47.896,154.438 42.576,154.438 	"/>
	<path fill="#FFFFFF" d="M77.598,173.662c1.003-0.227,2.01-0.682,2.992-1.355c0.989-0.678,1.866-1.652,2.606-2.896
		c0.75-1.26,1.13-2.939,1.13-4.994c0-1.303-0.231-2.623-0.688-3.926c-0.464-1.32-1.198-2.475-2.184-3.432
		c-0.819-0.791-1.872-1.432-3.129-1.908c-1.251-0.473-2.966-0.713-5.096-0.713h-9.658v30.594h5.319v-12.764l9.08,12.764h6.657
		l-8.338-11.117C76.664,173.857,77.099,173.775,77.598,173.662z M68.89,159.396h4.059c1.152,0,2.124,0.162,2.886,0.48
		c0.762,0.32,1.386,0.729,1.855,1.209c0.465,0.477,0.804,1.014,1.005,1.594c0.208,0.6,0.312,1.184,0.312,1.736
		c0,0.879-0.145,1.619-0.429,2.199c-0.287,0.588-0.662,1.078-1.113,1.459c-0.46,0.387-0.984,0.695-1.556,0.914
		c-0.597,0.229-1.185,0.395-1.749,0.494c-0.584,0.104-1.128,0.168-1.619,0.193c-0.509,0.025-0.907,0.039-1.193,0.039H68.89V159.396z
		"/>
	<polygon fill="#FFFFFF" points="87.326,185.031 104.283,185.031 104.283,180.072 92.645,180.072 92.645,172.074 104.283,172.074 
		104.283,167.115 92.645,167.115 92.645,159.396 104.283,159.396 104.283,154.438 87.326,154.438 	"/>
	<path fill="#FFFFFF" d="M117.435,154.438l-11.617,30.594h5.63l3.279-8.717h9.945l3.279,8.717h5.67l-11.618-30.594H117.435z
		 M122.845,171.354h-6.25l3.142-9.357L122.845,171.354z"/>
	<polygon fill="#FFFFFF" points="141.354,154.438 136.035,154.438 136.035,185.031 151.633,185.031 151.633,180.072 
		141.354,180.072 	"/>
	<polygon fill="#FFFFFF" points="164.309,185.031 181.266,185.031 181.266,180.072 169.627,180.072 169.627,172.074 
		181.266,172.074 181.266,167.115 169.627,167.115 169.627,159.396 181.266,159.396 181.266,154.438 164.309,154.438 	"/>
	<path fill="#FFFFFF" d="M199.084,168.756c-0.93-0.705-1.963-1.268-3.072-1.672c-1.066-0.385-2.064-0.75-3.012-1.104
		c-0.311-0.104-0.688-0.246-1.129-0.428c-0.414-0.17-0.818-0.395-1.199-0.666c-0.357-0.252-0.67-0.588-0.926-0.998
		c-0.24-0.381-0.363-0.889-0.363-1.512c0-0.369,0.078-0.77,0.23-1.191s0.379-0.814,0.674-1.17c0.287-0.344,0.65-0.631,1.084-0.854
		c0.707-0.363,1.617-0.439,2.721-0.143c0.422,0.115,0.818,0.318,1.176,0.607c0.354,0.285,0.652,0.672,0.885,1.15
		c0.23,0.473,0.348,1.092,0.348,1.84v0.5h5.32v-0.5c0-1.311-0.229-2.52-0.68-3.594c-0.451-1.07-1.08-2.002-1.873-2.766
		c-0.793-0.766-1.752-1.359-2.854-1.77c-1.09-0.404-2.293-0.609-3.572-0.609c-1.486,0-2.793,0.279-3.887,0.832
		c-1.078,0.549-1.996,1.246-2.727,2.076c-0.732,0.828-1.283,1.76-1.637,2.764c-0.352,0.996-0.529,1.961-0.529,2.865
		c0,1.088,0.17,2.168,0.504,3.213c0.346,1.076,0.9,1.986,1.656,2.713c0.355,0.33,0.699,0.625,1.031,0.887
		c0.342,0.27,0.758,0.535,1.234,0.787c0.473,0.252,1.047,0.514,1.705,0.781c0.656,0.268,1.48,0.59,2.455,0.959
		c0.51,0.215,1.049,0.43,1.615,0.645c0.512,0.197,0.99,0.457,1.42,0.775c0.408,0.303,0.754,0.695,1.023,1.168
		c0.262,0.453,0.395,1.057,0.395,1.789c0,1.445-0.396,2.531-1.209,3.322c-0.816,0.791-1.814,1.178-3.051,1.178
		c-0.98,0-1.756-0.203-2.305-0.605c-0.576-0.418-1.01-0.898-1.293-1.43c-0.293-0.549-0.482-1.1-0.568-1.641
		c-0.109-0.703-0.133-1.031-0.133-1.184v-0.5h-5.32v0.5c0,1.721,0.307,3.221,0.912,4.459c0.6,1.227,1.373,2.256,2.301,3.057
		c0.926,0.801,1.975,1.393,3.115,1.76c1.125,0.359,2.232,0.543,3.291,0.543c1.418,0,2.732-0.242,3.906-0.717
		c1.178-0.477,2.197-1.146,3.029-1.992c0.83-0.846,1.486-1.857,1.947-3.004c0.461-1.148,0.695-2.408,0.695-3.746
		c0-1.861-0.322-3.395-0.961-4.559C200.828,170.424,200.029,169.477,199.084,168.756z"/>
	<polygon fill="#FFFFFF" points="219.416,154.438 202.738,154.438 202.738,159.396 208.418,159.396 208.418,185.031 
		213.736,185.031 213.736,159.396 219.416,159.396 	"/>
	<path fill="#FFFFFF" d="M234.219,154.438h-4.568l-11.619,30.594h5.631l3.279-8.717h9.945l3.279,8.717h5.67l-11.494-30.271
		L234.219,154.438z M235.061,171.354h-6.25l3.143-9.357L235.061,171.354z"/>
	<polygon fill="#FFFFFF" points="244.371,159.396 250.049,159.396 250.049,185.031 255.369,185.031 255.369,159.396 
		261.047,159.396 261.047,154.438 244.371,154.438 	"/>
	<polygon fill="#FFFFFF" points="262.967,185.031 279.924,185.031 279.924,180.072 268.285,180.072 268.285,172.074 
		279.924,172.074 279.924,167.115 268.285,167.115 268.285,159.396 279.924,159.396 279.924,154.438 262.967,154.438 	"/>
</g>
</svg>
