<?xml version="1.0" encoding="utf-8"?>
<!-- Generator: Adobe Illustrator 16.0.0, SVG Export Plug-In . SVG Version: 6.00 Build 0)  -->
<!DOCTYPE svg PUBLIC "-//W3C//DTD SVG 1.1//EN" "http://www.w3.org/Graphics/SVG/1.1/DTD/svg11.dtd">
<svg version="1.1" id="Layer_1" xmlns="http://www.w3.org/2000/svg" xmlns:xlink="http://www.w3.org/1999/xlink" x="0px" y="0px"
	 width="225px" height="40px" viewBox="0 0 225 40" enable-background="new 0 0 225 40" xml:space="preserve">
<g>
	<path fill="#363635" d="M17.137,31.32v-5.133H6.326v-3.195l9.315-14.347h5.473v14.04h3.026v3.502h-3.026v5.133H17.137z
		 M17.137,12.215l-6.901,10.471h6.901V12.215z"/>
	<path fill="#363635" d="M26.52,25.473c0-2.855,2.346-4.929,5.1-5.847c-2.55-0.815-4.726-2.516-4.726-5.371
		c0-4.216,4.318-5.949,8.329-5.949c4.012,0,8.329,1.733,8.329,5.949c0,2.855-2.176,4.556-4.725,5.371
		c2.753,0.918,5.099,2.991,5.099,5.847c0,4.08-4.08,6.256-8.703,6.256C30.566,31.729,26.52,29.553,26.52,25.473z M39.881,24.963
		c0-2.346-3.264-3.365-4.658-3.568c-1.428,0.203-4.657,1.223-4.657,3.568c0,2.006,2.074,3.23,4.657,3.23
		C37.739,28.193,39.881,26.969,39.881,24.963z M39.507,14.867c0-1.938-1.836-3.026-4.284-3.026s-4.284,1.088-4.284,3.026
		c0,2.107,2.924,2.923,4.284,3.161C36.617,17.79,39.507,16.975,39.507,14.867z"/>
	<path fill="#363635" d="M46.783,20c0-5.711,2.686-11.694,9.077-11.694c6.357,0,9.043,5.983,9.043,11.694
		c0,5.678-2.686,11.729-9.043,11.729C49.469,31.729,46.783,25.678,46.783,20z M60.857,20c0-4.352-1.292-8.159-4.998-8.159
		S50.829,15.648,50.829,20c0,4.318,1.326,8.193,5.031,8.193C59.532,28.193,60.857,24.318,60.857,20z"/>
	<path fill="#363635" d="M67.352,24.623v-3.059h8.159v3.059H67.352z"/>
	<path fill="#363635" d="M77.346,28.057l2.176-2.617c1.462,1.699,3.842,2.754,6.255,2.754c2.992,0,4.726-1.395,4.726-3.469
		c0-2.242-1.768-3.229-5.032-3.229c-0.952,0-2.244,0.033-2.583,0.068V17.96c0.374,0.034,1.7,0.034,2.583,0.034
		c2.686,0,4.692-0.918,4.692-2.991c0-2.074-2.074-3.162-4.59-3.162c-2.346,0-4.25,0.851-5.881,2.516l-2.04-2.481
		c1.768-2.074,4.521-3.569,8.295-3.569c4.896,0,8.159,2.312,8.159,6.085c0,3.06-2.583,4.828-4.896,5.201
		c2.176,0.238,5.27,2.006,5.27,5.508c0,3.875-3.298,6.629-8.567,6.629C81.902,31.729,78.91,30.098,77.346,28.057z"/>
	<path fill="#363635" d="M97.745,31.32v-3.162c8.805-6.662,12.273-9.586,12.273-12.884c0-2.38-2.074-3.434-4.147-3.434
		c-2.652,0-4.658,1.054-6.12,2.686l-2.312-2.583c2.005-2.448,5.201-3.638,8.397-3.638c4.386,0,8.193,2.447,8.193,6.969
		c0,4.216-3.842,7.956-9.893,12.544h10.029v3.502H97.745z"/>
	<path fill="#363635" d="M118.789,29.18l1.87-3.027c1.189,1.26,2.481,2.006,4.657,2.006c4.113,0,5.983-3.773,5.983-7.478
		c0-0.204,0-0.442-0.034-0.646c-1.02,1.53-3.399,3.161-6.085,3.161c-4.08,0-7.581-2.481-7.581-7.309
		c0-4.216,3.297-7.615,8.363-7.615c6.663,0,9.349,5.405,9.349,11.694c0,6.562-3.434,11.729-9.995,11.729
		C122.495,31.695,120.319,30.676,118.789,29.18z M131.232,17.11c-0.238-2.447-1.564-5.304-5.066-5.304
		c-2.991,0-4.555,2.108-4.555,3.944c0,2.787,2.176,4.045,4.657,4.045C128.206,19.796,130.076,18.742,131.232,17.11z"/>
	<path fill="#363635" d="M137.726,24.623v-3.059h8.159v3.059H137.726z"/>
	<path fill="#363635" d="M148.843,28.227l2.278-2.754c1.496,1.768,3.569,2.721,6.085,2.721c2.89,0,4.657-1.768,4.657-4.012
		c0-2.414-1.768-4.011-4.555-4.011c-1.904,0-3.502,0.578-4.964,1.937l-2.821-0.816V8.646h14.856v3.502h-10.879v6.527
		c1.121-1.055,2.957-1.938,5.133-1.938c3.842,0,7.275,2.652,7.275,7.309c0,4.691-3.604,7.684-8.669,7.684
		C153.364,31.729,150.679,30.369,148.843,28.227z"/>
	<path fill="#363635" d="M169.819,29.18l1.87-3.027c1.189,1.26,2.481,2.006,4.657,2.006c4.113,0,5.983-3.773,5.983-7.478
		c0-0.204,0-0.442-0.034-0.646c-1.02,1.53-3.399,3.161-6.085,3.161c-4.08,0-7.581-2.481-7.581-7.309
		c0-4.216,3.298-7.615,8.363-7.615c6.663,0,9.349,5.405,9.349,11.694c0,6.562-3.434,11.729-9.995,11.729
		C173.525,31.695,171.35,30.676,169.819,29.18z M182.262,17.11c-0.237-2.447-1.563-5.304-5.065-5.304
		c-2.991,0-4.555,2.108-4.555,3.944c0,2.787,2.176,4.045,4.657,4.045C179.236,19.796,181.106,18.742,182.262,17.11z"/>
	<path fill="#363635" d="M190.252,29.18l1.87-3.027c1.189,1.26,2.481,2.006,4.657,2.006c4.113,0,5.983-3.773,5.983-7.478
		c0-0.204,0-0.442-0.034-0.646c-1.02,1.53-3.399,3.161-6.085,3.161c-4.08,0-7.581-2.481-7.581-7.309
		c0-4.216,3.297-7.615,8.363-7.615c6.663,0,9.349,5.405,9.349,11.694c0,6.562-3.434,11.729-9.995,11.729
		C193.958,31.695,191.782,30.676,190.252,29.18z M202.695,17.11c-0.238-2.447-1.564-5.304-5.066-5.304
		c-2.991,0-4.555,2.108-4.555,3.944c0,2.787,2.176,4.045,4.657,4.045C199.669,19.796,201.539,18.742,202.695,17.11z"/>
	<path fill="#363635" d="M214.696,31.32V13.779l-3.706,3.875l-2.312-2.414l6.527-6.595h3.468V31.32H214.696z"/>
</g>
</svg>
